<svg width="24" height="23" viewBox="0 0 24 23" fill="none" xmlns="http://www.w3.org/2000/svg">
<path d="M12 22.375C9.125 22.375 6.62 21.4538 4.485 19.6115C2.35 17.7692 1.12583 15.4682 0.8125 12.7083H3.375C3.66667 14.8028 4.63042 16.5347 6.26625 17.9042C7.90208 19.2736 9.81333 19.9583 12 19.9583C14.4375 19.9583 16.5054 19.1379 18.2037 17.497C19.9021 15.856 20.7508 13.8571 20.75 11.5C20.7492 9.14294 19.9004 7.14436 18.2037 5.50425C16.5071 3.86414 14.4392 3.04328 12 3.04167C10.5625 3.04167 9.21875 3.36389 7.96875 4.00833C6.71875 4.65278 5.66667 5.53889 4.8125 6.66667H8.25V9.08333H0.75V1.83333H3.25V4.67292C4.3125 3.38403 5.60958 2.38715 7.14125 1.68229C8.67292 0.977431 10.2925 0.625 12 0.625C13.5625 0.625 15.0262 0.912181 16.3912 1.48654C17.7562 2.0609 18.9438 2.83585 19.9538 3.81138C20.9638 4.7869 21.7658 5.93482 22.36 7.25513C22.9542 8.57543 23.2508 9.99039 23.25 11.5C23.2492 13.0096 22.9525 14.4246 22.36 15.7449C21.7675 17.0652 20.9654 18.2131 19.9538 19.1886C18.9421 20.1642 17.7546 20.9395 16.3912 21.5147C15.0279 22.0898 13.5642 22.3766 12 22.375ZM15.5 16.575L10.75 11.9833V5.45833H13.25V11.0167L17.25 14.8833L15.5 16.575Z" fill="white"/>
</svg>
