<svg width="60" height="58" viewBox="0 0 60 58" fill="none" xmlns="http://www.w3.org/2000/svg">
<path d="M17.4934 7.27757C18.9036 5.80528 23.5037 2.23619 31.058 2.2362L31.4872 10.072C28.1427 10.7578 26.7096 11.8959 24.3137 13.3209L17.4934 7.27757Z" fill="#427D81"/>
<path d="M11.0538 20.061C11.0538 19.8149 10.4142 12.6416 17.0641 7.66936L23.7597 13.2063C21.7864 15.7643 20.6355 17.5368 19.9092 20.061L11.0538 20.061Z" fill="#2571E3"/>
<path d="M16.6348 33.9194C14.9175 32.3522 11.0538 28.4343 11.0538 20.5985L19.8449 20.1076C20.6976 23.1377 21.8702 25.5086 23.5037 27.6507L16.6348 33.9194Z" fill="#1B5077"/>
<path d="M31.2312 39.7963C27.7968 40.1881 20.4985 38.2291 17.0641 34.3112L23.7597 27.7975C26.347 29.8496 28.8283 29.5147 31.5059 30.4313L31.2312 39.7963Z" fill="#27A7F0"/>
<path d="M31.9558 2.23618C34.2364 2.23617 40.0992 2.67842 45.3984 7.66936L39.3881 13.1544C36.4053 11.4312 34.8397 10.6564 31.9558 10.072L31.9558 2.23618Z" fill="#3ED5F6"/>
<path d="M51.4088 20.2067C51.4088 22.1656 51.4088 28.8261 46.2571 33.5276L39.6441 27.3108C41.5656 24.6082 42.4059 23.2756 43.0786 20.6504L51.4088 20.2067Z" fill="#8945DF"/>
<path d="M45.8278 33.9194C44.5398 35.4865 39.3881 39.7963 31.9165 39.7963L31.9165 30.0534C35.3571 29.3318 36.7305 28.7696 39.2148 27.3108L45.8278 33.9194Z" fill="#DDFC18"/>
<path d="M45.8277 8.06116C47.5449 9.23654 50.9794 12.7627 51.4087 19.8149L42.8226 20.2067C41.8298 17.115 41.3866 15.3833 39.644 13.2063L45.8277 8.06116Z" fill="#5B7BB8"/>
<ellipse cx="31.1827" cy="21.1567" rx="12.0206" ry="11.7537" fill="#FEF9F9"/>
<rect x="27" y="15" width="3" height="12" fill="#2571E3"/>
<rect x="27" y="24" width="9" height="3" fill="#2571E3"/>
<path d="M2.46 51.44H5.148L4.872 53H0.132L1.62 44.576H3.672L2.46 51.44ZM14.5628 44.576L10.6628 50.216L10.1588 53H8.10675L8.61075 50.216L6.67875 44.576H9.00675L10.0148 48.092L12.2588 44.576H14.5628ZM21.4375 53H19.3855L16.8775 47.804L15.9535 53H13.9015L15.3895 44.576H17.4415L19.9495 49.796L20.8735 44.576H22.9255L21.4375 53ZM26.273 53.084C25.361 53.084 24.617 52.888 24.041 52.496C23.473 52.096 23.189 51.532 23.189 50.804C23.189 50.732 23.197 50.624 23.213 50.48H25.349C25.325 50.784 25.397 51.024 25.565 51.2C25.733 51.376 25.989 51.464 26.333 51.464C26.645 51.464 26.889 51.396 27.065 51.26C27.249 51.124 27.341 50.932 27.341 50.684C27.341 50.428 27.225 50.22 26.993 50.06C26.769 49.9 26.417 49.72 25.937 49.52C25.473 49.328 25.093 49.148 24.797 48.98C24.509 48.804 24.257 48.568 24.041 48.272C23.825 47.976 23.717 47.604 23.717 47.156C23.709 46.604 23.845 46.124 24.125 45.716C24.405 45.308 24.793 44.996 25.289 44.78C25.785 44.564 26.353 44.456 26.993 44.456C27.569 44.456 28.081 44.548 28.529 44.732C28.977 44.908 29.325 45.168 29.573 45.512C29.821 45.848 29.945 46.248 29.945 46.712C29.945 46.832 29.941 46.92 29.933 46.976H27.749C27.757 46.944 27.761 46.896 27.761 46.832C27.761 46.608 27.681 46.428 27.521 46.292C27.369 46.148 27.157 46.076 26.885 46.076C26.597 46.076 26.361 46.148 26.177 46.292C26.001 46.428 25.913 46.616 25.913 46.856C25.913 47.096 26.025 47.3 26.249 47.468C26.473 47.628 26.821 47.816 27.293 48.032C27.765 48.248 28.149 48.448 28.445 48.632C28.749 48.816 29.009 49.064 29.225 49.376C29.441 49.68 29.549 50.056 29.549 50.504C29.549 51 29.417 51.444 29.153 51.836C28.889 52.228 28.509 52.536 28.013 52.76C27.517 52.976 26.937 53.084 26.273 53.084ZM37.8178 47.288C37.7378 47.776 37.5498 48.224 37.2538 48.632C36.9578 49.032 36.5538 49.356 36.0418 49.604C35.5378 49.852 34.9418 49.976 34.2538 49.976H32.9818L32.4418 53H30.3898L31.8778 44.576H35.2018C36.0818 44.576 36.7458 44.772 37.1938 45.164C37.6418 45.548 37.8658 46.072 37.8658 46.736C37.8658 46.936 37.8498 47.12 37.8178 47.288ZM34.3738 48.368C35.1418 48.368 35.5938 48.008 35.7298 47.288C35.7458 47.16 35.7538 47.068 35.7538 47.012C35.7538 46.756 35.6698 46.56 35.5018 46.424C35.3418 46.28 35.0938 46.208 34.7578 46.208H33.6418L33.2698 48.368H34.3738ZM41.1301 46.196L40.8301 47.948H43.5781L43.3021 49.496H40.5541L40.2181 51.38H43.3261L43.0381 53H37.8781L39.3661 44.576H44.5261L44.2381 46.196H41.1301ZM47.6223 46.196L47.3223 47.948H50.0703L49.7943 49.496H47.0463L46.7103 51.38H49.8183L49.5303 53H44.3703L45.8583 44.576H51.0183L50.7303 46.196H47.6223ZM55.5065 44.576C56.2825 44.576 56.9505 44.716 57.5105 44.996C58.0785 45.268 58.5105 45.656 58.8065 46.16C59.1105 46.656 59.2625 47.24 59.2625 47.912C59.2625 48.144 59.2345 48.436 59.1785 48.788C59.0345 49.612 58.7225 50.344 58.2425 50.984C57.7705 51.624 57.1665 52.12 56.4305 52.472C55.7025 52.824 54.8985 53 54.0185 53H50.8625L52.3505 44.576H55.5065ZM54.1985 51.248C54.9745 51.248 55.6185 51.032 56.1305 50.6C56.6425 50.168 56.9625 49.564 57.0905 48.788C57.1305 48.548 57.1505 48.348 57.1505 48.188C57.1505 47.596 56.9705 47.14 56.6105 46.82C56.2505 46.492 55.7385 46.328 55.0745 46.328H54.0905L53.2265 51.248H54.1985Z" fill="#2571E3"/>
</svg>
