<svg width="24" height="26" viewBox="0 0 24 26" fill="none" xmlns="http://www.w3.org/2000/svg">
<path d="M12 0C9.50752 0 7.11713 1.00921 5.35468 2.80561C3.59223 4.60201 2.6021 7.03845 2.6021 9.57895V14.4067C2.60229 14.619 2.55403 14.8284 2.46113 15.0184L0.155955 19.7162C0.0433501 19.9457 -0.00982099 20.2008 0.00149197 20.4571C0.0128049 20.7135 0.0882263 20.9626 0.220593 21.1809C0.352959 21.3992 0.537876 21.5793 0.75778 21.7043C0.977683 21.8292 1.22527 21.8948 1.47703 21.8947H22.523C22.7747 21.8948 23.0223 21.8292 23.2422 21.7043C23.4621 21.5793 23.647 21.3992 23.7794 21.1809C23.9118 20.9626 23.9872 20.7135 23.9985 20.4571C24.0098 20.2008 23.9567 19.9457 23.844 19.7162L21.5402 15.0184C21.4469 14.8285 21.3981 14.6191 21.3979 14.4067V9.57895C21.3979 7.03845 20.4078 4.60201 18.6453 2.80561C16.8829 1.00921 14.4925 0 12 0ZM12 26C11.1667 26.0004 10.3539 25.7375 9.67337 25.2473C8.99289 24.7571 8.47832 24.0639 8.20056 23.2632H15.7994C15.5217 24.0639 15.0071 24.7571 14.3266 25.2473C13.6461 25.7375 12.8333 26.0004 12 26Z" fill="white"/>
</svg>
